<svg xmlns="http://www.w3.org/2000/svg" width="35.406" height="35.41" viewBox="0 0 35.406 35.41">
  <defs>
    <style>
      .cls-1 {
        fill: #fff;
        fill-rule: evenodd;
      }
    </style>
  </defs>
  <path id="Forma_1" data-name="Forma 1" class="cls-1" d="M976.62,1402.77l-7.3-7.3a14.583,14.583,0,0,0,2.639-8.5,14.772,14.772,0,0,0-1.182-5.82,14.643,14.643,0,0,0-7.981-7.98,14.95,14.95,0,0,0-11.643,0,14.652,14.652,0,0,0-7.981,7.98,14.956,14.956,0,0,0,0,11.65,14.737,14.737,0,0,0,7.981,7.98,14.968,14.968,0,0,0,14.314-1.46l7.3,7.28a2.524,2.524,0,0,0,1.915.81,2.765,2.765,0,0,0,2.724-2.73A2.586,2.586,0,0,0,976.62,1402.77Zm-12.909-9.06a9.5,9.5,0,1,1,2.8-6.74A9.169,9.169,0,0,1,963.711,1393.71Z" transform="translate(-942 -1372)"/>
</svg>
