<svg xmlns="http://www.w3.org/2000/svg" width="11.12" height="20.594" viewBox="0 0 11.12 20.594">
  <defs>
    <style>
      .cls-1 {
        fill: #0f0f0f;
        fill-rule: evenodd;
      }
    </style>
  </defs>
  <path id="f" class="cls-1" d="M1839.66,826.677l-2.68,0a4.69,4.69,0,0,0-4.94,5.067v2.336h-2.69a0.415,0.415,0,0,0-.42.42v3.384a0.415,0.415,0,0,0,.42.421h2.69v8.54a0.414,0.414,0,0,0,.42.42h3.51a0.421,0.421,0,0,0,.42-0.42V838.3h3.14a0.421,0.421,0,0,0,.42-0.421V834.5a0.413,0.413,0,0,0-.12-0.3,0.431,0.431,0,0,0-.3-0.123h-3.14V832.1c0-.952.22-1.436,1.47-1.436h1.8a0.421,0.421,0,0,0,.42-0.419V827.1A0.42,0.42,0,0,0,1839.66,826.677Z" transform="translate(-1828.94 -826.656)"/>
</svg>
