<svg xmlns="http://www.w3.org/2000/svg" width="18.66" height="17.844" viewBox="0 0 18.66 17.844">
  <defs>
    <style>
      .cls-1 {
        fill: #fff;
        fill-rule: evenodd;
      }
    </style>
  </defs>
  <path id="in" class="cls-1" d="M1843.65,736.53v6.9h-4v-6.435c0-1.618-.58-2.721-2.02-2.721a2.2,2.2,0,0,0-2.06,1.463,2.875,2.875,0,0,0-.13.976v6.717h-4s0.05-10.9,0-12.029h4V733.1a0.077,0.077,0,0,0-.02.039h0.02V733.1a3.973,3.973,0,0,1,3.61-1.987C1841.68,731.117,1843.65,732.836,1843.65,736.53ZM1827.26,725.6a2.085,2.085,0,1,0-.06,4.157h0.03A2.085,2.085,0,1,0,1827.26,725.6Zm-2.03,17.827h4V731.4h-4v12.029Z" transform="translate(-1825 -725.594)"/>
</svg>
