<svg xmlns="http://www.w3.org/2000/svg" width="25.25" height="25.25" viewBox="0 0 25.25 25.25">
  <defs>
    <style>
      .cls-1 {
        fill: #fff;
        fill-rule: evenodd;
      }
    </style>
  </defs>
  <path id="Search" class="cls-1" d="M1846.72,109.974l-5.21-5.206a10.613,10.613,0,0,0,1.04-10.207,10.415,10.415,0,0,0-5.69-5.692,10.646,10.646,0,0,0-8.3,0,10.686,10.686,0,0,0,4.15,20.528,10.4,10.4,0,0,0,6.06-1.882l5.2,5.19a1.814,1.814,0,0,0,1.37.577,1.958,1.958,0,0,0,1.94-1.943A1.834,1.834,0,0,0,1846.72,109.974Zm-9.2-6.458a6.794,6.794,0,1,1,1.99-4.8A6.582,6.582,0,0,1,1837.52,103.516Z" transform="translate(-1822.03 -88.031)"/>
</svg>
