<svg xmlns="http://www.w3.org/2000/svg" width="21.72" height="17.656" viewBox="0 0 21.72 17.656">
  <defs>
    <style>
      .cls-1 {
        fill: #fff;
        fill-rule: evenodd;
      }
    </style>
  </defs>
  <path id="tw" class="cls-1" d="M1845.31,780.821a8.891,8.891,0,0,1-2.55.7,4.5,4.5,0,0,0,1.96-2.466,9.05,9.05,0,0,1-2.83,1.082,4.459,4.459,0,0,0-7.71,3.049,4.246,4.246,0,0,0,.11,1.015,12.633,12.633,0,0,1-9.18-4.655,4.372,4.372,0,0,0-.61,2.24,4.466,4.466,0,0,0,1.98,3.709,4.4,4.4,0,0,1-2.01-.558V785a4.453,4.453,0,0,0,3.57,4.369,4.482,4.482,0,0,1-2.01.077,4.451,4.451,0,0,0,4.16,3.1,8.993,8.993,0,0,1-6.6,1.844,12.672,12.672,0,0,0,19.51-10.676c0-.193,0-0.386-0.01-0.577A8.92,8.92,0,0,0,1845.31,780.821Z" transform="translate(-1823.59 -778.719)"/>
</svg>
